<svg width="106" height="92" viewBox="0 0 106 92" fill="none" xmlns="http://www.w3.org/2000/svg">
<path d="M53 92.0001C82.2711 92.0001 106 82.1428 106 69.9832C106 57.8236 82.2711 47.9663 53 47.9663C23.7289 47.9663 0 57.8236 0 69.9832C0 82.1428 23.7289 92.0001 53 92.0001Z" fill="#D4A574"/>
<path d="M53 83.1933C82.2711 83.1933 106 75.3075 106 65.5798C106 55.8521 82.2711 47.9663 53 47.9663C23.7289 47.9663 0 55.8521 0 65.5798C0 75.3075 23.7289 83.1933 53 83.1933Z" fill="#E8C4A0"/>
<path d="M56.7857 19.344C56.7857 16.9121 55.0908 14.9407 53 14.9407C50.9092 14.9407 49.2143 16.9121 49.2143 19.344V65.5795C49.2143 68.0114 50.9092 69.9829 53 69.9829C55.0908 69.9829 56.7857 68.0114 56.7857 65.5795V19.344Z" fill="#7A9B6C"/>
<path d="M44.2568 41.9123C49.9415 38.8289 51.6846 29.1824 48.1502 20.3662C44.6158 11.5499 37.1422 6.90245 31.4575 9.98576C25.7728 13.0691 24.0296 22.7156 27.5641 31.5319C31.0985 40.3481 38.5721 44.9956 44.2568 41.9123Z" fill="#A8D5BA"/>
<path d="M61.7432 37.5093C67.4279 40.5927 74.9015 35.9452 78.4359 27.1289C81.9704 18.3127 80.2272 8.66616 74.5425 5.58284C68.8578 2.49952 61.3842 7.14699 57.8498 15.9633C54.3154 24.7795 56.0585 34.426 61.7432 37.5093Z" fill="#88C9A1"/>
<path d="M53 18.2434C56.6589 18.2434 59.625 14.7933 59.625 10.5374C59.625 6.28159 56.6589 2.83154 53 2.83154C49.3411 2.83154 46.375 6.28159 46.375 10.5374C46.375 14.7933 49.3411 18.2434 53 18.2434Z" fill="#FFB347"/>
</svg>
