<svg width="106" height="116" viewBox="0 0 106 116" fill="none" xmlns="http://www.w3.org/2000/svg">
<path d="M54.572 116C82.4775 116 105.099 108.287 105.099 98.7716C105.099 89.2566 82.4775 81.5432 54.572 81.5432C26.6664 81.5432 4.04449 89.2566 4.04449 98.7716C4.04449 108.287 26.6664 116 54.572 116Z" fill="#D4A574"/>
<path d="M54.572 109.735C82.4775 109.735 105.099 103.424 105.099 95.6392C105.099 87.8542 82.4775 81.5432 54.572 81.5432C26.6664 81.5432 4.04449 87.8542 4.04449 95.6392C4.04449 103.424 26.6664 109.735 54.572 109.735Z" fill="#E8C4A0"/>
<path d="M59.3089 22.027C59.3089 19.432 57.1881 17.3284 54.572 17.3284C51.9558 17.3284 49.835 19.432 49.835 22.027V94.0731C49.835 96.6681 51.9558 98.7717 54.572 98.7717C57.1881 98.7717 59.3089 96.6681 59.3089 94.0731V22.027Z" fill="#8B6F47"/>
<path d="M51.414 40.8216C40.8874 37.6891 33.5188 35.0788 29.3082 32.9905" stroke="#7A9B6C" stroke-width="3" stroke-linecap="round"/>
<path d="M57.7299 48.6526C66.1512 45.5202 73.5198 42.9098 79.8357 40.8215" stroke="#7A9B6C" stroke-width="3" stroke-linecap="round"/>
<path d="M26.3149 63.1812C33.69 60.5185 36.7673 50.4529 33.1882 40.6989C29.6091 30.9449 20.7289 25.1962 13.3538 27.8588C5.97871 30.5214 2.90143 40.5871 6.48053 50.3411C10.0596 60.0951 18.9398 65.8438 26.3149 63.1812Z" fill="#A8D5BA"/>
<path d="M33.8037 49.6316C40.5423 47.8406 43.9924 38.9381 41.5097 29.7473C39.027 20.5565 31.5516 14.5578 24.8129 16.3489C18.0742 18.1399 14.6241 27.0424 17.1068 36.2332C19.5896 45.4239 27.065 51.4226 33.8037 49.6316Z" fill="#88C9A1"/>
<path d="M73.3552 58.4828C80.7303 61.1454 89.6104 55.3967 93.1895 45.6427C96.7686 35.8887 93.6913 25.8231 86.3162 23.1605C78.9411 20.4978 70.061 26.2465 66.4819 36.0005C62.9028 45.7545 65.9801 55.8202 73.3552 58.4828Z" fill="#A8D5BA"/>
<path d="M82.6365 51.8835C88.1689 54.4425 95.6415 50.1617 99.3269 42.3221C103.012 34.4826 101.515 26.0529 95.9826 23.494C90.4502 20.935 82.9777 25.2158 79.2923 33.0554C75.6068 40.8949 77.1041 49.3246 82.6365 51.8835Z" fill="#88C9A1"/>
<path d="M47.84 35.8849C53.8516 34.8334 57.4974 27.0754 55.9831 18.5568C54.4688 10.0383 48.3678 3.98495 42.3562 5.03639C36.3446 6.08783 32.6988 13.8459 34.2131 22.3644C35.7274 30.883 41.8284 36.9363 47.84 35.8849Z" fill="#A8D5BA"/>
<path d="M61.304 32.7523C67.3156 33.8037 73.4165 27.7504 74.9308 19.2318C76.4451 10.7133 72.7993 2.95524 66.7877 1.9038C60.7761 0.852359 54.6752 6.90567 53.1609 15.4242C51.6466 23.9428 55.2924 31.7008 61.304 32.7523Z" fill="#88C9A1"/>
<path d="M54.572 20.4607C58.0602 20.4607 60.8879 17.6558 60.8879 14.1958C60.8879 10.7358 58.0602 7.93091 54.572 7.93091C51.0838 7.93091 48.256 10.7358 48.256 14.1958C48.256 17.6558 51.0838 20.4607 54.572 20.4607Z" fill="#FFB347"/>
</svg>
