<svg width="98" height="116" viewBox="0 0 98 116" fill="none" xmlns="http://www.w3.org/2000/svg">
<path d="M49 116C76.062 116 98 109.89 98 102.353C98 94.8158 76.062 88.7058 49 88.7058C21.938 88.7058 0 94.8158 0 102.353C0 109.89 21.938 116 49 116Z" fill="#D4A574"/>
<path d="M49 111.451C76.062 111.451 98 106.359 98 100.078C98 93.7975 76.062 88.7058 49 88.7058C21.938 88.7058 0 93.7975 0 100.078C0 106.359 21.938 111.451 49 111.451Z" fill="#E8C4A0"/>
<path d="M56.7369 69.3726C56.7369 65.6041 53.273 62.5491 49 62.5491C44.7271 62.5491 41.2632 65.6041 41.2632 69.3726V95.5294C41.2632 99.298 44.7271 102.353 49 102.353C53.273 102.353 56.7369 99.298 56.7369 95.5294V69.3726Z" fill="#8B6F47"/>
<path d="M29.6578 77.3332C42.4766 77.3332 52.8683 68.1683 52.8683 56.8627C52.8683 45.5571 42.4766 36.3921 29.6578 36.3921C16.839 36.3921 6.44727 45.5571 6.44727 56.8627C6.44727 68.1683 16.839 77.3332 29.6578 77.3332Z" fill="#88C9A1"/>
<path d="M68.3421 77.3332C81.1609 77.3332 91.5526 68.1683 91.5526 56.8627C91.5526 45.5571 81.1609 36.3921 68.3421 36.3921C55.5233 36.3921 45.1316 45.5571 45.1316 56.8627C45.1316 68.1683 55.5233 77.3332 68.3421 77.3332Z" fill="#A8D5BA"/>
<path d="M48.9999 85.2941C63.2431 85.2941 74.7894 75.1108 74.7894 62.549C74.7894 49.9873 63.2431 39.804 48.9999 39.804C34.7568 39.804 23.2104 49.9873 23.2104 62.549C23.2104 75.1108 34.7568 85.2941 48.9999 85.2941Z" fill="#7AB88A"/>
<path d="M20.6316 58C32.0261 58 41.2632 49.8534 41.2632 39.804C41.2632 29.7546 32.0261 21.6079 20.6316 21.6079C9.23707 21.6079 0 29.7546 0 39.804C0 49.8534 9.23707 58 20.6316 58Z" fill="#A8D5BA"/>
<path d="M77.3684 58C88.7629 58 98 49.8534 98 39.804C98 29.7546 88.7629 21.6079 77.3684 21.6079C65.9739 21.6079 56.7368 29.7546 56.7368 39.804C56.7368 49.8534 65.9739 58 77.3684 58Z" fill="#88C9A1"/>
<path d="M49.0001 57.9997C61.8189 57.9997 72.2106 48.8348 72.2106 37.5292C72.2106 26.2236 61.8189 17.0586 49.0001 17.0586C36.1813 17.0586 25.7896 26.2236 25.7896 37.5292C25.7896 48.8348 36.1813 57.9997 49.0001 57.9997Z" fill="#7AB88A"/>
<path d="M36.1054 38.6664C46.0756 38.6664 54.158 31.538 54.158 22.7448C54.158 13.9516 46.0756 6.82324 36.1054 6.82324C26.1352 6.82324 18.0527 13.9516 18.0527 22.7448C18.0527 31.538 26.1352 38.6664 36.1054 38.6664Z" fill="#A8D5BA"/>
<path d="M61.8947 38.6664C71.8649 38.6664 79.9473 31.538 79.9473 22.7448C79.9473 13.9516 71.8649 6.82324 61.8947 6.82324C51.9245 6.82324 43.842 13.9516 43.842 22.7448C43.842 31.538 51.9245 38.6664 61.8947 38.6664Z" fill="#88C9A1"/>
<path d="M49.0001 34.1176C59.6824 34.1176 68.3422 26.4801 68.3422 17.0588C68.3422 7.63749 59.6824 0 49.0001 0C38.3177 0 29.658 7.63749 29.658 17.0588C29.658 26.4801 38.3177 34.1176 49.0001 34.1176Z" fill="#7AB88A"/>
<path d="M29.4474 64.5884C33.0082 64.5884 35.8947 62.0425 35.8947 58.9021C35.8947 55.7617 33.0082 53.2158 29.4474 53.2158C25.8866 53.2158 23 55.7617 23 58.9021C23 62.0425 25.8866 64.5884 29.4474 64.5884Z" fill="#FF8C42"/>
<path d="M64.4737 51.1765C68.0345 51.1765 70.9211 48.6307 70.9211 45.4902C70.9211 42.3498 68.0345 39.804 64.4737 39.804C60.913 39.804 58.0264 42.3498 58.0264 45.4902C58.0264 48.6307 60.913 51.1765 64.4737 51.1765Z" fill="#FFA85C"/>
<path d="M47.8026 43.2353C51.0073 43.2353 53.6053 40.944 53.6053 38.1176C53.6053 35.2912 51.0073 33 47.8026 33C44.5979 33 42 35.2912 42 38.1176C42 40.944 44.5979 43.2353 47.8026 43.2353Z" fill="#FF8C42"/>
<path d="M54.8026 62.2353C58.0073 62.2353 60.6053 59.944 60.6053 57.1176C60.6053 54.2912 58.0073 52 54.8026 52C51.5979 52 49 54.2912 49 57.1176C49 59.944 51.5979 62.2353 54.8026 62.2353Z" fill="#FFA85C"/>
<path d="M25.7895 38.6666C28.6381 38.6666 30.9474 36.63 30.9474 34.1176C30.9474 31.6053 28.6381 29.5686 25.7895 29.5686C22.9409 29.5686 20.6316 31.6053 20.6316 34.1176C20.6316 36.63 22.9409 38.6666 25.7895 38.6666Z" fill="#FF8C42"/>
<path d="M72.2106 42.0783C75.0593 42.0783 77.3685 40.0416 77.3685 37.5292C77.3685 35.0169 75.0593 32.9802 72.2106 32.9802C69.362 32.9802 67.0527 35.0169 67.0527 37.5292C67.0527 40.0416 69.362 42.0783 72.2106 42.0783Z" fill="#FFA85C"/>
<path opacity="0.8" d="M32.0263 58.3334C33.0945 58.3334 33.9605 57.5696 33.9605 56.6275C33.9605 55.6854 33.0945 54.9216 32.0263 54.9216C30.958 54.9216 30.092 55.6854 30.092 56.6275C30.092 57.5696 30.958 58.3334 32.0263 58.3334Z" fill="#FFD4A3"/>
<path opacity="0.8" d="M67.0526 44.9215C68.1209 44.9215 68.9868 44.1578 68.9868 43.2156C68.9868 42.2735 68.1209 41.5098 67.0526 41.5098C65.9844 41.5098 65.1184 42.2735 65.1184 43.2156C65.1184 44.1578 65.9844 44.9215 67.0526 44.9215Z" fill="#FFD4A3"/>
<path opacity="0.8" d="M49.0001 36.6198C49.8547 36.6198 50.5475 36.0088 50.5475 35.2551C50.5475 34.5014 49.8547 33.8904 49.0001 33.8904C48.1455 33.8904 47.4528 34.5014 47.4528 35.2551C47.4528 36.0088 48.1455 36.6198 49.0001 36.6198Z" fill="#FFD4A3"/>
</svg>
