<svg width="18" height="18" viewBox="0 0 18 18" fill="none" xmlns="http://www.w3.org/2000/svg">
<path d="M12.7773 0.5C15.3782 0.5 17.5 2.62463 17.5 5.22559V12.7744C17.5 15.3756 15.3775 17.5 12.7812 17.5H5.22656C2.62462 17.4998 0.500121 15.3783 0.5 12.7832V5.23047C0.5 2.63013 2.62535 0.504103 5.22656 0.503906H5.72656V0.5H12.7773ZM5.22656 0.888672C2.82093 0.888865 0.889648 2.82199 0.884766 5.2334V12.7871C0.884766 15.188 2.81826 17.1199 5.22656 17.1201H12.7812C15.1825 17.1201 17.1152 15.1865 17.1152 12.7783V5.23047C17.1152 2.82192 15.1826 0.888672 12.7773 0.888672H5.22656ZM9.00391 4.65723C11.3932 4.65723 13.3505 6.61356 13.3506 9.00195C13.3506 11.3904 11.3933 13.3467 9.00391 13.3467C6.61474 13.3465 4.6582 11.3903 4.6582 9.00195C4.65832 6.6137 6.61481 4.65746 9.00391 4.65723ZM9.00391 5.04102C6.80699 5.04124 5.04308 6.80524 5.04297 9.00195C5.04297 11.1988 6.80692 12.9627 9.00391 12.9629C11.2011 12.9629 12.9658 11.1989 12.9658 9.00195C12.9657 6.8051 11.201 5.04102 9.00391 5.04102ZM14.543 3.27246C14.6519 3.27255 14.7353 3.35625 14.7354 3.46484C14.7354 3.57353 14.6519 3.65713 14.543 3.65723C14.4339 3.65723 14.3506 3.57359 14.3506 3.46484C14.3507 3.35619 14.434 3.27246 14.543 3.27246Z" fill="white" stroke="white"/>
</svg>
