<svg width="19" height="20" viewBox="0 0 19 20" fill="none" xmlns="http://www.w3.org/2000/svg">
<path d="M15.6133 0.25H2.88672C1.43282 0.25 0.25 1.49853 0.25 3.0332V16.4668C0.25 18.0015 1.43282 19.25 2.88672 19.25H15.6133C17.0672 19.25 18.25 18.0015 18.25 16.4668V3.0332C18.25 1.49853 17.0672 0.25 15.6133 0.25ZM17.1953 16.4668C17.1953 17.3876 16.4856 18.1367 15.6133 18.1367H2.88672C2.0144 18.1367 1.30469 17.3876 1.30469 16.4668V3.0332C1.30469 2.11243 2.0144 1.36328 2.88672 1.36328H15.6133C16.4856 1.36328 17.1953 2.11243 17.1953 3.0332V16.4668Z" fill="white" stroke="white" stroke-width="0.5"/>
<path d="M12.0501 7.547C12.4489 7.55928 12.8263 7.65459 13.1663 7.88098C13.6023 8.17132 13.8686 8.59613 14.0247 9.10754C14.1464 9.50611 14.1864 9.91766 14.1868 10.3351C14.1878 11.5391 14.1879 12.7434 14.1878 13.9474C14.1878 13.9664 14.1861 13.9853 14.1849 14.007H12.2825V10.6066C12.2825 10.3703 12.2656 10.1359 12.2093 9.90442C12.0923 9.42447 11.7806 9.19699 11.4466 9.14758C11.114 9.0984 10.7599 9.2255 10.5579 9.45422C10.3568 9.68192 10.2246 9.94096 10.2191 10.2609C10.2178 10.3347 10.2142 10.4116 10.2142 10.4865C10.2138 11.6322 10.2132 12.7782 10.2132 13.924V14.006H8.31573V7.69739H10.2122V8.54211L10.221 8.547C10.2254 8.54902 10.2315 8.55156 10.2366 8.55383L10.2484 8.55872L10.2562 8.54895C10.2697 8.52958 10.2836 8.50923 10.2972 8.48938C10.4898 8.20626 10.7101 7.95585 11.0023 7.78723C11.3286 7.5987 11.6819 7.53574 12.0501 7.547Z" fill="white" stroke="white" stroke-width="0.0306072"/>
<path d="M7.10675 7.69592V14.0104H5.21906V7.69592H7.10675Z" fill="white" stroke="white" stroke-width="0.0306072"/>
<path d="M6.24493 4.54077C6.54281 4.54039 6.79686 4.65157 6.97638 4.84253C7.15599 5.0336 7.26149 5.30542 7.26251 5.62476C7.26339 5.94041 7.15651 6.20856 6.97443 6.39819C6.79232 6.58786 6.53423 6.69981 6.23029 6.69995C5.6388 6.70026 5.21673 6.25329 5.21564 5.62183C5.21457 4.99011 5.64293 4.54163 6.24493 4.54077Z" fill="white" stroke="white" stroke-width="0.0306072"/>
</svg>
