<svg width="20" height="20" viewBox="0 0 20 20" fill="none" xmlns="http://www.w3.org/2000/svg">
<path d="M17.0125 3.53333C17.4875 3.53333 17.8458 3.94999 17.6542 4.72499L15.3292 15.6833C15.1667 16.4625 14.6958 16.65 14.0458 16.2875L8.50002 12.1917C8.47851 12.1762 8.46099 12.1559 8.4489 12.1323C8.43681 12.1088 8.43051 12.0827 8.43051 12.0562C8.43051 12.0298 8.43681 12.0037 8.4489 11.9801C8.46099 11.9566 8.47851 11.9363 8.50002 11.9208L14.9042 6.13749C15.1959 5.87916 14.8417 5.75416 14.4584 5.98749L6.42085 11.0583C6.39647 11.0742 6.3688 11.0844 6.33992 11.088C6.31104 11.0916 6.28172 11.0886 6.25418 11.0792L2.84168 9.99999C2.08335 9.77916 2.08335 9.25833 3.01252 8.88749L16.6667 3.62083C16.775 3.56888 16.8926 3.53912 17.0125 3.53333Z" stroke="white" stroke-linecap="round" stroke-linejoin="round"/>
</svg>
