<svg width="31" height="37" viewBox="0 0 31 37" fill="none" xmlns="http://www.w3.org/2000/svg">
<path d="M30.8751 22.2775C30.8751 23.9304 30.5919 25.5182 30.0626 26.9993C30.0254 27.1108 29.9837 27.2268 29.9372 27.3383C29.8537 27.5611 29.7608 27.784 29.6633 28.0069C29.6123 28.1183 29.5612 28.2251 29.5101 28.3365C29.3569 28.6569 29.1898 28.9772 29.018 29.2884C28.8973 29.4973 28.7719 29.7062 28.6419 29.9105C28.5119 30.1102 28.3773 30.3098 28.238 30.5094C28.1683 30.6069 28.0987 30.7044 28.0244 30.8066C27.8804 30.9923 27.7412 31.1734 27.5973 31.3498C27.0123 32.0648 26.3576 32.7241 25.6425 33.323C25.4661 33.4716 25.2851 33.6202 25.0994 33.7594C24.9137 33.9034 24.7233 34.0426 24.533 34.1726C24.3426 34.3073 24.1476 34.4327 23.9526 34.558C23.9434 34.5627 23.9387 34.5674 23.9293 34.572C23.7344 34.6927 23.5394 34.8134 23.3397 34.9249C23.1586 35.027 22.9775 35.1245 22.7964 35.222C22.7686 35.236 22.7407 35.2498 22.7129 35.2638C22.5179 35.3613 22.323 35.4541 22.1279 35.547C22.1094 35.5563 22.0908 35.5656 22.0722 35.5702C21.204 35.9695 20.2894 36.2898 19.3422 36.522C18.8687 36.6428 18.3858 36.7402 17.8936 36.8098C17.5592 36.8608 17.2188 36.8986 16.8756 36.9291C16.7568 36.9398 16.6382 36.9502 16.5186 36.9583C16.4799 36.9607 16.4421 36.9656 16.4033 36.9677V36.9627C16.0832 36.982 15.7625 37.0001 15.4376 37.0001C12.9258 37.0001 10.5579 36.429 8.46398 35.4122C5.31616 33.894 2.7904 31.3729 1.34653 28.2947C0.478182 26.4561 0 24.4179 0 22.2775C0 14.1478 6.91323 7.55495 15.4375 7.55495C15.7637 7.55495 16.0847 7.56918 16.4032 7.58841V7.58747C16.4125 7.58841 16.4212 7.58869 16.4302 7.58935C16.4565 7.59094 16.4837 7.59028 16.51 7.59209C16.9789 7.61991 17.4386 7.67101 17.8935 7.74529C18.056 7.76387 18.2139 7.79176 18.3718 7.82421C18.4535 7.83801 18.5316 7.86049 18.6123 7.87595C18.8577 7.92321 19.1016 7.97553 19.3421 8.03313C20.2892 8.26525 21.2038 8.5856 22.072 8.98494C22.2857 9.08243 22.4992 9.18461 22.7128 9.29135C22.7406 9.3053 22.7685 9.31917 22.7963 9.33312C22.9774 9.4306 23.1585 9.52809 23.3396 9.63027C23.5393 9.74171 23.7342 9.86239 23.9292 9.98315C23.9385 9.98777 23.9431 9.9924 23.9525 9.99709C24.1474 10.1225 24.3425 10.2478 24.5328 10.3824C24.7232 10.5124 24.9135 10.6517 25.0993 10.7956C25.285 10.9349 25.466 11.0835 25.6424 11.232C26.3575 11.831 27.0121 12.4903 27.5971 13.2053C27.7411 13.3817 27.8803 13.5628 28.0242 13.7485C28.0986 13.8506 28.1682 13.9481 28.2378 14.0456C28.3771 14.2453 28.5117 14.4449 28.6418 14.6446C28.7717 14.8489 28.8971 15.0578 29.0179 15.2667C29.1896 15.5778 29.3567 15.8982 29.51 16.2185C29.561 16.33 29.6121 16.4368 29.6632 16.5482C29.7607 16.7711 29.8535 16.9939 29.9371 17.2168C29.9836 17.3282 30.0253 17.4443 30.0625 17.5557C30.1878 17.8993 30.2946 18.2475 30.3874 18.6004C30.4153 18.6933 30.4385 18.7861 30.4617 18.879C30.7311 19.97 30.8751 21.1075 30.8751 22.2775Z" fill="#EEA948"/>
<path d="M22.1557 6.03209C21.0647 7.12316 19.695 7.73135 18.3718 7.82421C18.3625 7.82421 18.3486 7.82884 18.3393 7.82421C17.7171 7.86598 17.1043 7.79169 16.5379 7.59672C16.5285 7.60134 16.5193 7.59672 16.51 7.59209C16.4728 7.58277 16.4404 7.5689 16.4032 7.55495L23.1958 0.767103L23.6787 0.279598C23.8272 0.674241 23.9155 1.08746 23.9433 1.51462C24.064 3.04672 23.4512 4.73211 22.1557 6.03209Z" fill="#87B432"/>
<path d="M23.6787 0.279596L23.1958 0.7671L16.4032 7.55495C15.73 5.75351 16.2685 3.46456 17.926 1.80245C19.226 0.507088 20.9114 -0.105797 22.4436 0.0149587C22.8708 0.042781 23.284 0.131017 23.6787 0.279596Z" fill="#94BA45"/>
<path d="M16.4029 7.58631V36.9685C24.4784 36.4929 30.8751 30.0993 30.8751 22.2774C30.8751 14.4556 24.4784 8.06189 16.4029 7.58631Z" fill="#E99F33"/>
</svg>
